<svg xmlns="http://www.w3.org/2000/svg" xmlns:xlink="http://www.w3.org/1999/xlink" width="512" height="512" viewBox="0 0 512 512">
  <defs>
    <linearGradient id="linear-gradient" x2="1" y2="1" gradientUnits="objectBoundingBox">
      <stop offset="0" stop-color="#46e3de"/>
      <stop offset="1" stop-color="#f7ff33"/>
    </linearGradient>
  </defs>
  <g id="favicon-2" transform="translate(-323 -186)">
    <rect id="Rectangle_1" data-name="Rectangle 1" width="512" height="512" rx="256" transform="translate(323 186)" fill="url(#linear-gradient)"/>
    <path id="logo-boekrak" d="M276.564,0H2V292.868h9.152v-9.152H88.945v9.152H98.1v-9.152h82.369v9.152h9.152v-9.152h77.793v9.152h9.152V279.14h0ZM70.641,274.564H29.456v-9.152H70.641Zm0-18.3H29.456v-9.152H70.641Zm0-18.3H29.456V228.8H70.641Zm18.3,36.609H79.793V219.651H20.3v54.913H11.152V192.195H88.945ZM29.456,183.043V137.282h9.152v45.761Zm32.032,0V137.282h9.152v45.761Zm27.456,0H79.793V128.13H52.337v54.913H47.761V128.13H20.3v54.913H11.152V100.673H88.945ZM29.456,91.521V45.761h9.152V91.521Zm32.032,0V45.761h9.152V91.521Zm27.456,0H79.793V36.609H52.337V91.521H47.761V36.609H20.3V91.521H11.152V9.152H88.945Zm38.9,183.043H118.69V228.8h9.152Zm32.032,0h-9.152V228.8h9.152Zm20.592,0h-11.44V219.651H141.57v54.913h-4.576V219.651H109.537v54.913H98.1V192.195h82.369ZM159.874,155.586v9.152H118.69v-9.152Zm-41.185-9.152v-9.152h41.185v9.152Zm41.185,27.456v9.152H118.69V173.89Zm20.592,9.152h-11.44V128.13H109.537v54.913H98.1V100.673h82.369ZM118.69,91.521V45.761h9.152V91.521Zm32.032,0V45.761h9.152V91.521Zm29.744,0h-11.44V36.609H141.57V91.521h-4.576V36.609H109.537V91.521H98.1V9.152h82.369Zm68.641,183.043H207.923v-9.152h41.185Zm0-18.3H207.923v-9.152h41.185Zm0-18.3H207.923V228.8h41.185Zm18.3,36.609H258.26V219.651H198.771v54.913h-9.152V192.195h77.793Zm-59.489-91.521V137.282h9.152v45.761Zm32.032,0V137.282h9.152v45.761Zm27.456,0H258.26V128.13H230.8v54.913h-4.576V128.13H198.771v54.913h-9.152V100.673h77.793ZM207.923,91.521V45.761h9.152V91.521Zm32.032,0V45.761h9.152V91.521Zm27.456,0H258.26V36.609H230.8V91.521h-4.576V36.609H198.771V91.521h-9.152V9.152h77.793Z" transform="translate(439.718 295.566)" fill="#fff"/>
  </g>
</svg>
